HIERARCHY
ROOT Hips
{
	OFFSET -3.958830 18.904000 13.208200
	CHANNELS 6 Xposition Yposition Zposition Zrotation Yrotation Xrotation 
	JOINT LHipJoint
	{
		OFFSET 0.000000 0.000000 0.000000
		CHANNELS 3 Zrotation Yrotation Xrotation
		JOINT LeftUpLeg
		{
			OFFSET 1.800000 -1.400000 0.085000
			CHANNELS 3 Zrotation Yrotation Xrotation
			JOINT LeftLeg
			{
				OFFSET 2.215000 -6.000000 0.000000
				CHANNELS 3 Zrotation Yrotation Xrotation
				JOINT LeftFoot
				{
					OFFSET 2.500000 -6.900000 0.000000
					CHANNELS 3 Zrotation Yrotation Xrotation
					JOINT LeftToeBase
					{
						OFFSET 0.200000 -0.500000 1.950000
						CHANNELS 3 Zrotation Yrotation Xrotation
						End Site
						{
							OFFSET 0.000000 0.000000 0.000000
						}
					}
				}
			}
		}
	}
	JOINT RHipJoint
	{
		OFFSET 0.000000 0.000000 0.000000
		CHANNELS 3 Zrotation Yrotation Xrotation
		JOINT RightUpLeg
		{
			OFFSET -1.800000 -1.400000 0.085000
			CHANNELS 3 Zrotation Yrotation Xrotation
			JOINT RightLeg
			{
				OFFSET -2.215000 -6.000000 0.000000
				CHANNELS 3 Zrotation Yrotation Xrotation
				JOINT RightFoot
				{
					OFFSET -2.500000 -6.900000 0.000000
					CHANNELS 3 Zrotation Yrotation Xrotation
					JOINT RightToeBase
					{
						OFFSET -0.200000 -0.500000 1.950000
						CHANNELS 3 Zrotation Yrotation Xrotation
						End Site
						{
							OFFSET 0.000000 0.000000 0.000000
						}
					}
				}
			}
		}
	}
	JOINT LowerBack
	{
		OFFSET 0.000000 0.000000 0.000000
		CHANNELS 3 Zrotation Yrotation Xrotation
		JOINT Spine
		{
			OFFSET -0.087000 1.940000 -0.288900
			CHANNELS 3 Zrotation Yrotation Xrotation
			JOINT Spine1
			{
				OFFSET 0.000000 1.950000 0.060000
				CHANNELS 3 Zrotation Yrotation Xrotation
				JOINT Neck
				{
					OFFSET 0.000000 0.000000 0.000000
					CHANNELS 3 Zrotation Yrotation Xrotation
					JOINT Neck1
					{
						OFFSET 0.000000 1.600000 0.340000
						CHANNELS 3 Zrotation Yrotation Xrotation
						JOINT Head
						{
							OFFSET 0.000000 1.667000 -0.240000
							CHANNELS 3 Zrotation Yrotation Xrotation
							End Site
							{
								OFFSET 0.000000 0.000000 0.000000
							}
						}
					}
				}
				JOINT LeftShoulder
				{
					OFFSET 0.000000 0.000000 0.000000
					CHANNELS 3 Zrotation Yrotation Xrotation
					JOINT LeftArm
					{
						OFFSET 2.700000 1.550000 -0.730000
						CHANNELS 3 Zrotation Yrotation Xrotation
						JOINT LeftForeArm
						{
							OFFSET 5.450000 0.000000 0.000000
							CHANNELS 3 Zrotation Yrotation Xrotation
							JOINT LeftHand
							{
								OFFSET 3.450000 0.000000 0.000000
								CHANNELS 3 Zrotation Yrotation Xrotation
								JOINT LeftHandIndex1
								{
									OFFSET 0.750000 0.000000 0.000000
									CHANNELS 3 Zrotation Yrotation Xrotation
									End Site
									{
										OFFSET 0.000000 0.000000 0.000000
									}
								}
							}
						}
					}
				}
				JOINT RightShoulder
				{
					OFFSET 0.000000 0.000000 0.000000
					CHANNELS 3 Zrotation Yrotation Xrotation
					JOINT RightArm
					{
						OFFSET -2.700000 1.550000 -0.730000
						CHANNELS 3 Zrotation Yrotation Xrotation
						JOINT RightForeArm
						{
							OFFSET -5.450000 0.000000 0.000000
							CHANNELS 3 Zrotation Yrotation Xrotation
							JOINT RightHand
							{
								OFFSET -3.450000 0.000000 0.000000
								CHANNELS 3 Zrotation Yrotation Xrotation
								JOINT RightHandIndex1
								{
									OFFSET -0.750000 0.000000 0.000000
									CHANNELS 3 Zrotation Yrotation Xrotation
									End Site
									{
										OFFSET 0.000000 0.000000 0.000000
									}
								}
							}
						}
					}
				}
			}
		}
	}
}
MOTION
Frames: 10
Frame Time: 0.016667
-1.343100 17.150880 -5.391090 8.735517 -19.737803 -5.844592 -15.540268 13.584486 3.542658 -7.952694 3.832024 7.815846 -11.821883 7.523235 7.627295 0.527503 5.172836 2.747652 0.166120 0.179670 0.188190 18.245979 -8.942263 3.046627 10.111893 3.123635 -24.051085 1.342263 -1.900930 6.503557 0.114413 -1.203068 3.886224 0.088740 -0.079870 -0.011380 -2.984404 -5.173356 -7.501122 4.073826 -11.376438 7.156491 -11.918074 -10.070972 6.241738 1.881018 -8.559450 -12.547005 -28.170745 23.698615 40.412841 -3.321730 17.080500 -1.275150 -30.029947 -13.751855 6.268943 -43.132204 -8.700938 -1.951244 15.047454 -12.807683 -2.274418 -3.642770 3.067497 0.221220 -0.051540 0.132270 -0.005260 26.805824 15.049603 7.633033 66.812921 5.320844 -10.127961 24.952527 41.848970 4.742768 2.533984 -1.362903 -0.051900 0.056150 -0.043830 -0.113820 
-1.323980 17.105960 -5.288890 8.664809 -21.074239 -5.221465 -15.541777 13.553772 3.561457 -8.817740 3.969235 7.626768 -11.745365 7.551775 7.892081 0.552085 5.152830 2.763193 0.123270 0.131500 0.157010 18.252180 -8.909741 3.058713 10.163102 3.112078 -24.001703 2.321044 -2.020440 5.958795 0.128361 -1.220563 3.895795 0.054780 -0.057130 -0.016550 -3.005708 -5.180869 -7.496392 4.644224 -11.280055 6.669178 -12.330072 -10.059325 4.986515 2.339671 -8.590595 -12.142153 -27.690376 23.820348 39.418689 -3.029670 17.784560 -0.205800 -30.379344 -12.491754 5.715573 -44.261440 -7.170030 -1.644094 11.393550 -11.268033 -1.583269 -3.650478 3.050672 0.210290 -0.038300 0.113120 -0.007830 26.207179 13.694638 7.322937 67.422774 3.148778 -10.971559 25.820517 37.990618 4.281987 2.570530 -1.336105 -0.061450 0.047780 -0.030380 -0.109450 
-1.309260 17.069270 -5.191230 8.307841 -22.205970 -4.629354 -15.533613 13.532771 3.578918 -9.432107 4.045594 7.531473 -11.630227 7.550518 8.033238 0.573493 5.126847 2.774532 0.096250 0.101860 0.134990 18.265342 -8.880880 3.075800 10.437445 3.174290 -23.944230 3.114525 -2.165609 6.181227 0.131564 -1.249577 3.894414 0.029050 -0.046890 -0.017640 -3.052423 -5.196557 -7.496918 5.408974 -11.295019 6.449185 -12.658010 -10.184786 3.899425 2.714465 -8.638049 -11.812728 -27.368157 23.989129 38.472147 -2.718040 18.347280 0.434470 -30.711081 -11.347132 5.207714 -45.138219 -5.798785 -1.541900 8.641555 -10.014597 -1.133471 -3.649636 3.042087 0.204850 -0.034210 0.104950 -0.008980 25.762316 12.378659 7.122002 67.886061 1.080322 -11.954126 26.854153 35.800878 4.101671 2.594480 -1.321240 -0.062250 0.036060 -0.023290 -0.104770 
-1.300360 17.046520 -5.094280 7.965155 -23.056805 -4.259957 -15.526649 13.536847 3.597471 -9.835371 4.109037 7.587609 -11.365502 7.569008 8.398310 0.588011 5.121643 2.777713 0.078350 0.080700 0.123370 18.270906 -8.874544 3.084162 10.693709 3.273031 -23.977102 3.320570 -2.296576 7.236812 0.130439 -1.275005 3.890537 0.009550 -0.042960 -0.021480 -3.075468 -5.218619 -7.496910 5.931525 -11.291522 6.475984 -12.704131 -10.329724 2.819516 2.953344 -8.732216 -11.454206 -27.446676 24.294636 37.808383 -2.571670 18.793940 0.695660 -31.022957 -9.981240 4.645077 -45.881734 -4.415897 -1.681995 6.168878 -9.553771 -0.859876 -3.637581 3.023927 0.209720 -0.037310 0.104140 -0.010710 25.622849 10.847971 6.898844 68.004072 -0.968120 -12.940461 28.203200 34.725763 4.197898 2.608523 -1.303491 -0.065040 0.033790 -0.018210 -0.103530 
-1.288030 17.038150 -5.002810 7.443005 -23.704897 -3.988794 -15.503540 13.541144 3.613666 -10.076243 4.159156 7.760649 -10.858034 7.506086 8.595516 0.597003 5.090116 2.784558 0.066820 0.066070 0.120230 18.289052 -8.883517 3.098061 11.036116 3.390201 -24.025959 3.069407 -2.373041 8.439297 0.124958 -1.293572 3.883807 -0.008650 -0.051910 -0.024320 -3.141053 -5.209432 -7.503279 6.721644 -11.391301 6.649890 -12.796903 -10.561924 1.847444 3.173476 -8.793939 -11.218947 -27.746113 24.568620 37.773393 -2.705480 19.143200 0.889540 -31.446376 -8.926608 4.252920 -46.362716 -3.114483 -1.914284 4.152972 -9.201548 -0.672382 -3.617125 3.010581 0.217960 -0.047520 0.111340 -0.015580 25.607257 9.604086 6.695571 68.043751 -2.613874 -13.789133 28.686167 33.726052 4.079831 2.623351 -1.278767 -0.062000 0.027250 -0.016330 -0.104220 
-1.277730 17.046270 -4.913970 6.914825 -24.410507 -3.902893 -15.471675 13.545566 3.641184 -10.245329 4.233645 8.131333 -10.428311 7.457031 8.724980 0.599428 5.075809 2.779086 0.067370 0.061300 0.131700 18.312388 -8.901940 3.113242 11.407490 3.499069 -23.883551 2.659315 -2.449533 9.855430 0.105158 -1.328463 3.865278 -0.020490 -0.075820 -0.027990 -3.225374 -5.184928 -7.531332 7.508829 -11.530914 7.033679 -12.919574 -10.833021 0.877522 3.372869 -8.757945 -11.121606 -28.238555 25.162539 38.477877 -2.957350 19.632020 0.817200 -32.348160 -8.159197 4.017143 -46.259238 -1.644191 -2.221066 2.703202 -8.844159 -0.552851 -3.583833 2.994796 0.242720 -0.068530 0.130650 -0.023430 26.118555 8.542400 6.574370 67.749573 -4.156406 -14.605617 29.739283 34.093346 4.389268 2.627918 -1.259713 -0.059950 0.022490 -0.017750 -0.113230 
-1.260430 17.051510 -4.825810 6.270879 -24.795755 -3.727941 -15.446260 13.546324 3.665668 -10.488223 4.303845 8.510660 -9.791123 7.347630 8.797148 0.598648 5.045544 2.778764 0.069340 0.058590 0.144770 18.333267 -8.907529 3.124916 11.737952 3.612406 -23.766353 2.368576 -2.535527 11.238508 0.085348 -1.380651 3.838579 -0.029730 -0.099400 -0.028030 -3.300090 -5.176190 -7.546635 8.354487 -11.786545 7.316559 -13.043611 -11.201219 0.127733 3.568683 -8.732250 -10.944863 -28.530194 25.540164 39.074456 -3.387250 20.044140 0.693750 -33.099180 -7.438693 3.767595 -46.373973 -0.524072 -2.463254 1.890546 -8.410521 -0.486321 -3.561752 2.984386 0.259990 -0.084990 0.147280 -0.032020 26.453454 7.537929 6.403245 67.356149 -5.277714 -15.153727 30.566800 34.552490 4.706089 2.631904 -1.249423 -0.055040 0.013490 -0.019900 -0.121480 
-1.245730 17.050740 -4.743890 5.656548 -25.132207 -3.381380 -15.445849 13.549853 3.680653 -10.730202 4.369490 8.780752 -9.205294 7.224945 8.760887 0.595581 5.014228 2.784830 0.069110 0.056100 0.149240 18.335625 -8.885261 3.136211 11.987109 3.736561 -23.677076 2.469131 -2.650938 12.241472 0.071039 -1.437786 3.816170 -0.035380 -0.109560 -0.027840 -3.310969 -5.217735 -7.548910 8.880349 -11.981208 7.389945 -12.888313 -11.493159 -0.342893 3.683069 -8.764941 -10.694607 -28.624775 25.686461 39.109823 -3.687140 20.274030 0.533680 -33.321455 -6.607127 3.426487 -46.992134 0.177958 -2.589684 1.042856 -7.987949 -0.430160 -3.554194 2.971983 0.268660 -0.091920 0.154500 -0.035510 26.455872 6.537490 6.232656 67.057608 -6.142443 -15.599543 31.605605 35.494916 5.205086 2.627175 -1.252021 -0.053100 0.009530 -0.020310 -0.125330 
-1.233890 17.051210 -4.669600 5.119845 -25.140237 -2.960873 -15.462620 13.587667 3.678957 -10.865660 4.352064 8.792816 -8.536142 7.112028 9.007414 0.595569 4.975153 2.795599 0.068350 0.057060 0.150520 18.321768 -8.848153 3.137189 12.126314 3.785561 -23.554435 2.393766 -2.676972 12.688696 0.063230 -1.458672 3.809595 -0.040570 -0.116610 -0.028790 -3.264699 -5.347282 -7.537365 9.086492 -12.390547 7.363745 -12.582933 -11.970975 -0.550888 3.772256 -8.864816 -10.607379 -28.935768 25.904593 38.680622 -4.043810 20.553430 0.366670 -33.077234 -6.021505 3.284757 -47.989522 0.840668 -2.710869 0.252846 -7.684925 -0.378529 -3.545707 2.964529 0.269930 -0.097470 0.160460 -0.035870 26.118659 5.868061 6.116060 66.949151 -6.560862 -15.865109 32.782610 36.599976 5.818311 2.627737 -1.262640 -0.048260 0.006740 -0.023010 -0.124080 
-1.221330 17.048090 -4.598580 4.550595 -25.626699 -2.505524 -15.475946 13.601199 3.673941 -10.980883 4.361007 8.787622 -8.070488 6.993376 8.955243 0.592141 4.931460 2.807686 0.069930 0.061560 0.153060 18.314773 -8.813871 3.143796 12.396061 3.846665 -23.332277 2.191859 -2.664274 12.941034 0.054721 -1.474317 3.804813 -0.042180 -0.120870 -0.028010 -3.243213 -5.425584 -7.517547 9.435662 -12.663385 7.277561 -12.423691 -12.291528 -0.573028 3.877797 -8.939609 -10.525425 -29.003117 26.308165 38.163672 -4.243650 21.055080 0.131400 -32.719579 -5.481375 3.180390 -49.004294 1.458791 -2.898701 -0.357058 -7.622691 -0.351641 -3.541771 2.959588 0.271590 -0.100040 0.166240 -0.035460 25.586176 5.282599 5.993009 66.910042 -6.656709 -15.889097 34.613889 37.757495 6.684175 2.628924 -1.283119 -0.044880 0.004790 -0.025760 -0.123920 
